<svg width="20" height="14" viewBox="0 0 20 14" fill="none" xmlns="http://www.w3.org/2000/svg">
  <path fill-rule="evenodd" clip-rule="evenodd" d="M13.4652 3.86063C13.4652 5.8187 11.9043 7.38876 9.9575 7.38876C8.01075 7.38876 6.44976 5.8187 6.44976 3.86063C6.44976 1.90181 8.01075 0.333252 9.9575 0.333252C11.9043 0.333252 13.4652 1.90181 13.4652 3.86063ZM9.95751 13.6666C7.09819 13.6666 4.65672 13.2133 4.65672 11.4001C4.65672 9.5861 7.08252 9.11628 9.95751 9.11628C12.8168 9.11628 15.2583 9.56959 15.2583 11.3836C15.2583 13.1968 12.8325 13.6666 9.95751 13.6666ZM14.9642 3.92424C14.9642 4.92242 14.6665 5.85229 14.1442 6.62531C14.0905 6.70487 14.1382 6.81219 14.233 6.8287C14.3636 6.85122 14.4986 6.86398 14.6359 6.86773C16.0051 6.90375 17.2341 6.0174 17.5736 4.68301C18.0765 2.70092 16.5998 0.921472 14.7195 0.921472C14.515 0.921472 14.3195 0.943236 14.1293 0.982263C14.1031 0.988267 14.0755 1.00027 14.0606 1.02354C14.0427 1.05206 14.0561 1.09034 14.074 1.1151C14.6389 1.91139 14.9642 2.88254 14.9642 3.92424ZM17.2318 8.26041C18.1519 8.44128 18.757 8.81053 19.0077 9.34714C19.2196 9.78769 19.2196 10.2988 19.0077 10.7386C18.6242 11.5709 17.3878 11.8381 16.9072 11.9071C16.808 11.9221 16.7282 11.8358 16.7386 11.736C16.9841 9.42969 15.0314 8.33621 14.5262 8.08479C14.5046 8.07353 14.5001 8.05627 14.5023 8.04576C14.5038 8.03826 14.5128 8.02625 14.5292 8.024C15.6223 8.00373 16.7976 8.15383 17.2318 8.26041ZM5.36423 6.86772C5.50153 6.86397 5.63584 6.85196 5.76716 6.82869C5.86193 6.81218 5.90968 6.70486 5.85596 6.62531C5.33364 5.85229 5.03592 4.92241 5.03592 3.92424C5.03592 2.88253 5.36125 1.91138 5.9261 1.11509C5.94401 1.09033 5.95669 1.05205 5.93953 1.02353C5.92461 1.00102 5.89625 0.988258 5.87088 0.982254C5.67986 0.943227 5.48437 0.921463 5.27992 0.921463C3.39957 0.921463 1.9229 2.70091 2.42657 4.683C2.76607 6.0174 3.99501 6.90374 5.36423 6.86772ZM5.49743 8.04529C5.49967 8.05655 5.49519 8.07306 5.4743 8.08507C4.96839 8.33649 3.01567 9.42998 3.26116 11.7355C3.27161 11.8361 3.19251 11.9217 3.09327 11.9074C2.61274 11.8383 1.37634 11.5712 0.992807 10.7389C0.780148 10.2983 0.780148 9.78797 0.992807 9.34742C1.24352 8.81081 1.84792 8.44156 2.76794 8.25994C3.20296 8.15412 4.37743 8.00401 5.47131 8.02428C5.48773 8.02653 5.49594 8.03854 5.49743 8.04529Z" fill="#F77E53"/>
</svg>
