<svg width="18" height="18" viewBox="0 0 18 18" fill="none" xmlns="http://www.w3.org/2000/svg">
  <path fill-rule="evenodd" clip-rule="evenodd" d="M10.7677 8.3608H13.0742C13.424 8.3608 13.6988 8.07166 13.6988 7.72299C13.6988 7.36581 13.424 7.08517 13.0742 7.08517H10.7677C10.418 7.08517 10.1432 7.36581 10.1432 7.72299C10.1432 8.07166 10.418 8.3608 10.7677 8.3608ZM15.8138 3.93941C16.3217 3.93941 16.6548 4.118 16.9879 4.5092C17.3209 4.90039 17.3792 5.46167 17.3043 5.97108L16.5132 11.5499C16.3633 12.6222 15.464 13.4123 14.4065 13.4123H5.32195C4.21448 13.4123 3.29853 12.5457 3.20693 11.4231L2.44086 2.15267L1.18351 1.93156C0.850435 1.87203 0.617283 1.54037 0.675571 1.2002C0.733859 0.852375 1.05861 0.62191 1.40001 0.673786L3.38596 0.979088C3.66907 1.03096 3.87724 1.26823 3.90222 1.55738L4.06043 3.46233C4.08541 3.73531 4.30191 3.93941 4.56837 3.93941H15.8138ZM5.18855 14.7564C4.4891 14.7564 3.92287 15.3347 3.92287 16.0491C3.92287 16.7549 4.4891 17.3332 5.18855 17.3332C5.87968 17.3332 6.44591 16.7549 6.44591 16.0491C6.44591 15.3347 5.87968 14.7564 5.18855 14.7564ZM14.5563 14.7564C13.8568 14.7564 13.2906 15.3347 13.2906 16.0491C13.2906 16.7549 13.8568 17.3332 14.5563 17.3332C15.2474 17.3332 15.8136 16.7549 15.8136 16.0491C15.8136 15.3347 15.2474 14.7564 14.5563 14.7564Z" fill="#2076FF"/>
</svg>
